<?xml version="1.0" encoding="UTF-8" standalone="no"?>
<!-- Created with Inkscape (http://www.inkscape.org/) -->

<svg
   xmlns:dc="http://purl.org/dc/elements/1.1/"
   xmlns:cc="http://creativecommons.org/ns#"
   xmlns:rdf="http://www.w3.org/1999/02/22-rdf-syntax-ns#"
   xmlns:svg="http://www.w3.org/2000/svg"
   xmlns="http://www.w3.org/2000/svg"
   xmlns:xlink="http://www.w3.org/1999/xlink"
   xmlns:sodipodi="http://sodipodi.sourceforge.net/DTD/sodipodi-0.dtd"
   xmlns:inkscape="http://www.inkscape.org/namespaces/inkscape"
   width="272.14285mm"
   height="176.89285mm"
   viewBox="0 0 272.14285 176.89285"
   version="1.1"
   id="svg8"
   inkscape:version="0.92.2 (5c3e80d, 2017-08-06)"
   sodipodi:docname="website.svg">
  <defs
     id="defs2">
    <linearGradient
       inkscape:collect="always"
       id="linearGradient949">
      <stop
         style="stop-color:#d7f493;stop-opacity:1;"
         offset="0"
         id="stop945" />
      <stop
         style="stop-color:#006a36;stop-opacity:0"
         offset="1"
         id="stop947" />
    </linearGradient>
    <linearGradient
       inkscape:collect="always"
       xlink:href="#linearGradient949"
       id="linearGradient951"
       x1="-248.70833"
       y1="-17.476191"
       x2="-248.70833"
       y2="176.04762"
       gradientUnits="userSpaceOnUse" />
  </defs>
  <sodipodi:namedview
     id="base"
     pagecolor="#ffffff"
     bordercolor="#666666"
     borderopacity="1.0"
     inkscape:pageopacity="0.0"
     inkscape:pageshadow="2"
     inkscape:zoom="0.7"
     inkscape:cx="463.8947"
     inkscape:cy="321.32907"
     inkscape:document-units="mm"
     inkscape:current-layer="layer1"
     showgrid="false"
     inkscape:window-width="1920"
     inkscape:window-height="1027"
     inkscape:window-x="1912"
     inkscape:window-y="-8"
     inkscape:window-maximized="1" />
  <metadata
     id="metadata5">
    <rdf:RDF>
      <cc:Work
         rdf:about="">
        <dc:format>image/svg+xml</dc:format>
        <dc:type
           rdf:resource="http://purl.org/dc/dcmitype/StillImage" />
        <dc:title />
      </cc:Work>
    </rdf:RDF>
  </metadata>
  <g
     inkscape:label="Layer 1"
     inkscape:groupmode="layer"
     id="layer1"
     transform="translate(324.61664,50.597275)">
    <rect
       style="opacity:0.98999999;vector-effect:none;fill:url(#linearGradient951);fill-opacity:1;fill-rule:nonzero;stroke:none;stroke-width:0.17399999;stroke-linecap:butt;stroke-linejoin:miter;stroke-miterlimit:4;stroke-dasharray:none;stroke-dashoffset:0;stroke-opacity:0.98451329;paint-order:fill markers stroke"
       id="rect4504"
       width="272.14285"
       height="176.89285"
       x="-324.61664"
       y="-50.597275" />
    <text
       xml:space="preserve"
       style="font-style:normal;font-variant:normal;font-weight:normal;font-stretch:normal;font-size:10.58333302px;line-height:1.25;font-family:Helvetica;-inkscape-font-specification:Helvetica;letter-spacing:0px;word-spacing:0px;fill:#000000;fill-opacity:1;stroke:none;stroke-width:0.26458332"
       x="-313.34225"
       y="-33.205757"
       id="text4508"><tspan
         sodipodi:role="line"
         x="-313.34225"
         y="-33.205757"
         style="stroke-width:0.26458332"
         id="tspan941">Willkommen bei &quot;Frag einen Veganer&quot;!</tspan></text>
    <text
       xml:space="preserve"
       style="font-style:normal;font-variant:normal;font-weight:normal;font-stretch:normal;font-size:7.05555534px;line-height:1.25;font-family:Helvetica;-inkscape-font-specification:Helvetica;letter-spacing:0px;word-spacing:0px;fill:#000000;fill-opacity:1;stroke:none;stroke-width:0.26458332"
       x="-212.15942"
       y="75.441093"
       id="text817"><tspan
         sodipodi:role="line"
         id="tspan815"
         x="-212.15942"
         y="75.441093"
         style="stroke-width:0.26458332">Häufige Fragen</tspan></text>
    <text
       xml:space="preserve"
       style="font-style:normal;font-variant:normal;font-weight:normal;font-stretch:normal;font-size:7.05555534px;line-height:1.25;font-family:Helvetica;-inkscape-font-specification:Helvetica;letter-spacing:0px;word-spacing:0px;fill:#000000;fill-opacity:1;stroke:none;stroke-width:0.26458332"
       x="-311.83035"
       y="75.883926"
       id="text821"><tspan
         sodipodi:role="line"
         id="tspan819"
         x="-311.83035"
         y="75.883926"
         style="stroke-width:0.26458332">Zuletzt gestellte Fragen</tspan></text>
    <rect
       style="opacity:0.98999999;vector-effect:none;fill:#e6e6e6;fill-opacity:1;fill-rule:nonzero;stroke:none;stroke-width:0.24061023;stroke-linecap:butt;stroke-linejoin:miter;stroke-miterlimit:4;stroke-dasharray:none;stroke-dashoffset:0;stroke-opacity:0.98451329;paint-order:fill markers stroke"
       id="rect823"
       width="91.092262"
       height="66.901787"
       x="-226.78569"
       y="-10.294641" />
    <text
       xml:space="preserve"
       style="font-style:normal;font-variant:normal;font-weight:normal;font-stretch:normal;font-size:7.05555534px;line-height:1.25;font-family:Helvetica;-inkscape-font-specification:Helvetica;letter-spacing:0px;word-spacing:0px;fill:#000000;fill-opacity:1;stroke:none;stroke-width:0.26458332"
       x="-218.65923"
       y="0.099702425"
       id="text827"><tspan
         sodipodi:role="line"
         id="tspan825"
         x="-218.65923"
         y="0.099702425"
         style="stroke-width:0.26458332">Hallo.</tspan></text>
    <text
       xml:space="preserve"
       style="font-style:normal;font-variant:normal;font-weight:normal;font-stretch:normal;font-size:7.05555534px;line-height:1.25;font-family:Helvetica;-inkscape-font-specification:Helvetica;letter-spacing:0px;word-spacing:0px;fill:#000000;fill-opacity:1;stroke:none;stroke-width:0.26458332"
       x="-155.72618"
       y="14.462797"
       id="text831"><tspan
         sodipodi:role="line"
         id="tspan829"
         x="-155.72618"
         y="14.462797"
         style="stroke-width:0.26458332">Hi</tspan></text>
    <text
       xml:space="preserve"
       style="font-style:normal;font-variant:normal;font-weight:normal;font-stretch:normal;font-size:7.05555534px;line-height:1.25;font-family:Helvetica;-inkscape-font-specification:Helvetica;letter-spacing:0px;word-spacing:0px;fill:#000000;fill-opacity:1;stroke:none;stroke-width:0.26458332"
       x="-221.11607"
       y="32.227676"
       id="text835"><tspan
         sodipodi:role="line"
         id="tspan833"
         x="-221.11607"
         y="32.227676"
         style="stroke-width:0.26458332">Was möchtest du wissen?</tspan></text>
    <g
       transform="matrix(0.08578412,0,0,0.08578412,-122.52849,-34.865693)"
       id="layer1-3">
      <g
         transform="matrix(0.4749,0,0,0.6102,293.53,138.46)"
         id="g8091">
        <g
           transform="translate(434.29,-397.14)"
           id="g8065">
          <path
             d="m -268.6,1390.8 c -7.9,-1.3 -20.59,-8.2 -27.09,-23.8 -9.65,-23.2 -13.04,-39.3 -13.07,-62 -0.1,-63.6 40.35,-123.2 100.05,-147.5 24.79,-10.1 52.69,-13.1 77.24,-9.8 61.27,8.1 137.27,96.2 121.29,106.8 -59.375,39.5 -42.335,58.5 -6.386,102.8 5.255,6.5 -15.66,3.4 -17.178,3 -21.422,-5.8 28.181,8.1 23.335,8.2 -4.845,0 -80.035,-0.4 -125.61,6.9 -79.78,12.6 -101.22,20.6 -116.43,18 -10.79,1.5 -7.62,6.9 -16.15,-2.6 z"
             style="opacity:0.99591998;fill:#241c1c"
             id="path8059"
             inkscape:connector-curvature="0" />
          <path
             d="m 46.173,1581.9 c -23.148,-3 -32.6,-7.8 -36.052,-18.4 -3.21,-9.8 -4.3504,-183.4 -1.2478,-190 1.4628,-3.1 -2.8891,-7.9 -15.512,-17.1 -74.27,-54.5 -72.117,-171.3 4.1906,-227.5 17.252,-12.7 22.479,-21.6 13.575,-23.2 -6.3529,-1.2 -39.978,25.3 -51.1,40.2 l -9.672,12.9 -14.789,-8.3 c -23.8,-13.4 -46.586,-20.1 -74.966,-21.9 -33.8,-2.1 -55.87,2.2 -86.62,17 -39.36,18.8 -73.41,57.1 -86.99,97.7 -11.58,34.6 -11.03,78.7 1.43,114.9 3.06,8.9 5.56,16.4 5.56,16.7 0,0.3 -23.46,-5.8 -52.14,-13.6 -41.01,-11 -57.33,-14.1 -76.43,-14.5 l -24.28,-0.4 -5.24,10 c -4.86,9.2 -5.13,16.3 -3.68,95.7 1.36,73.9 0.08,107 -4.29,111.3 -0.6,0.5 -15.81,3.1 -33.82,5.6 -38.2,5.3 -83.04,5.6 -97.16,0.8 -22.43,-7.7 -28.61,-32.4 -22.98,-91.6 6.36,-67 6.99,-111.4 1.81,-127.3 l -4.59,-14 20.06,-20.1 c 14.07,-14 22.54,-25.5 28.39,-38.4 9.6,-21.2 15.64,-51.5 13.69,-68.8 l -1.35,-11.9 19.92,-12.8 c 80.38,-51.7 92.84,-137.6 29.2,-201.49 l -17.18,-17.24 6.42,-11.33 c 12.82,-22.65 19.03,-46.85 19.2,-74.89 0.09,-14.53 1.03,-26.42 2.09,-26.43 1.05,-0.01 10.27,-5.62 20.47,-12.46 l 18.56,-12.45 73.25,-1.45 c 66.65,-1.32 73.09,-1.04 71.4,3.16 -12.2,30.33 -15.98,74.64 -8.79,103.19 15.78,62.66 64.17,111.59 124.34,125.69 27.02,6.4 64.17,4.7 90.17,-4.1 52.12,-17.6 89.395,-54.8 107.51,-107.3 8.8935,-25.79 9.1512,-76.47 0.51,-100.96 l -5.883,-16.67 37.553,1.96 c 74.353,3.88 84.21,6.42 109.99,28.43 47.58,40.61 78.83,94.01 88.94,151.94 3.82,21.9 3.93,117.9 0.18,158.1 -3.92,42.2 -3.8,45.8 1.61,45.8 2.52,0 12.81,3.9 22.86,8.7 24.99,11.9 28.22,18.5 25.64,52.6 -1.08,14.2 -4.16,37.8 -6.85,52.4 l -4.88,26.6 -17.19,-15.5 c -13.08,-11.9 -20.01,-21.3 -28.98,-39.5 l -11.78,-23.9 -6.13,-130 c -3.38,-71.5 -6.77,-134.2 -7.55,-139.3 -1.05,-6.8 -2.9,-9.29 -7.01,-9.29 -6.93,0 -7.06,-14.08 1.52,153.89 l 7.07,138.2 -11.9,29 -11.89,28.9 -1.28,110.7 -1.27,110.7 -14.63,4.4 c -11.59,3.4 -75.552,10.9 -81.772,9.5 -0.786,-0.2 -9.444,-1.3 -19.239,-2.6 h 0.004 z"
             style="opacity:0.99591998;fill:#ffffff"
             id="path8061"
             inkscape:connector-curvature="0" />
          <path
             d="m -227.98,1046.1 c -26.2,-6.4 -50.13,-20.5 -72.47,-42.9 -32.81,-32.93 -44.98,-62.72 -44.98,-110.14 -0.01,-20.73 1.54,-30.87 7.2,-47.14 3.96,-11.4 7.61,-21.09 8.11,-21.52 2,-1.76 275.09,3.31 278.08,5.16 12.451,7.7 19.593,75.05 11.071,104.38 -8.235,28.34 -21.252,50.53 -41.554,70.86 -38.607,38.5 -92.957,54 -145.45,41.3 h -0.01 z"
             style="opacity:0.99591998;fill:#241c1c"
             id="path8055"
             inkscape:connector-curvature="0" />
          <path
             d="m -514.29,823.79 c 0,0 411.27,-5.97 594.29,8.57 34.83,2.77 63.17,33.31 86.29,59.51 25.69,29.1 44.49,65.63 53.71,103.35 17.18,70.28 0,217.18 0,217.18 0,0 49.3,11 54.54,38.2 5.24,27.1 -14.54,118.9 -14.54,118.9 0,0 -34.43,-23.1 -43.96,-37.4 -9.52,-14.3 -21.76,-42.6 -21.76,-42.6 l -11.65,28.4 -14.06,34.4 c 0,0 -6.41,200.5 -2.86,220 3.55,19.5 -143.88,34.2 -156.54,3.5 C -3.489,1545.1 3.4544,1376 3.4544,1376 l -23.464,-15.2 c 0,0 -154.38,33.7 -228.6,32.8 -74.22,-0.9 -192.74,-57.5 -211.4,-35.7 -18.66,21.9 10.73,195.4 -11.43,214.3 0,0 -125.01,25.9 -151.43,0 -37.6,-36.8 10.1,-171.7 -11.43,-220 -21.53,-48.3 -50.1,-42.7 -68.67,-68.5 -18.58,-25.7 -42.76,-85.7 -42.76,-85.7 l 231.44,-374.21 z"
             style="fill:none;stroke:#000000;stroke-width:10"
             sodipodi:nodetypes="cssccccscccscccscccsscc"
             id="path7985"
             inkscape:connector-curvature="0" />
          <path
             d="m -650.85,1320.1 c -3.08,-3.9 -15.03,-12.7 -26.54,-19.7 -14.94,-9 -23.85,-17 -31.09,-27.7 -9.57,-14.1 -24.61,-43.5 -26.11,-46 -7.76,-12.8 7.98,-10.7 20.89,-9.9 28.21,1.7 79.38,5.3 109.3,-4.2 l 21.24,-6.7 v 17.8 c 0,31.8 -14.17,63.1 -39.25,86.8 -17.61,16.6 -21.76,18 -28.44,9.6 z"
             style="opacity:0.99591998;fill:#241c1c"
             id="path8057"
             inkscape:connector-curvature="0" />
          <g
             transform="matrix(1.0283,0,0,1.0484,-1265.8,147.21)"
             id="g7970">
            <path
               d="m 317.14,563.79 c -18.7,18.18 1.66,54.34 14.88,76.82 10.59,18.01 47.98,40.32 47.98,40.32 l 45.71,-65.71 c 0,0 -21.59,-27.3 -36.49,-35.34 -21.67,-11.68 -54.43,-33.25 -72.08,-16.09 z"
               style="fill:#deaa87;stroke:#080505;stroke-width:10"
               id="path7861"
               inkscape:connector-curvature="0" />
            <path
               d="m 800.54,585.87 c -12.92,-22.66 -53.03,-11.99 -78.1,-4.81 -20.09,5.75 -51.04,36.37 -51.04,36.37 l 52.19,60.7 c 0,0 31.83,-14.08 43.34,-26.5 16.73,-18.06 45.81,-44.38 33.61,-65.76 z"
               style="fill:#deaa87;stroke:#080505;stroke-width:10"
               id="path7861-5"
               inkscape:connector-curvature="0" />
            <path
               d="m 458.8,559.51 c 0,0 -17.06,-14.94 -18.93,-25.65 -1.71,-9.82 8.27,-28.64 8.27,-28.64 0,0 -34.8,15.1 -41.42,31.88 -8.35,21.14 9.43,68.12 9.43,68.12 z"
               style="fill:#502d16;stroke:#080505;stroke-width:10"
               id="path7883-6"
               inkscape:connector-curvature="0" />
            <path
               d="m 645.71,563.79 c 0,0 18.29,-14.94 20.29,-25.65 1.83,-9.82 -8.86,-28.64 -8.86,-28.64 0,0 37.3,15.1 44.4,31.88 8.94,21.14 -10.12,68.12 -10.12,68.12 z"
               style="fill:#502d16;stroke:#080505;stroke-width:10"
               id="path7883"
               inkscape:connector-curvature="0" />
            <path
               transform="matrix(1.2022,0,0,1.5019,1433.7,-881.71)"
               d="m -585.71,1053.8 a 152.86,107.14 0 1 1 -305.72,0 152.86,107.14 0 1 1 305.72,0 z"
               style="opacity:0.99591998;fill:#ffffff;stroke:#080505;stroke-width:7.44199991"
               id="path7331-6"
               inkscape:connector-curvature="0" />
            <path
               transform="matrix(1.3101,0,0,1.2896,1527,-470.92)"
               d="m -585.71,1053.8 a 152.86,107.14 0 1 1 -305.72,0 152.86,107.14 0 1 1 305.72,0 z"
               style="opacity:0.99591998;fill:#deaa87;stroke:#080505;stroke-width:7.9066"
               id="path7331"
               inkscape:connector-curvature="0" />
            <path
               transform="translate(-428.57,-317.14)"
               d="m 934.29,1052.4 a 21.43,20.000933 0 1 1 -42.86,0 21.43,20.000933 0 1 1 42.86,0 z"
               style="opacity:0.99591998;fill:#000000;stroke:#080505;stroke-width:10"
               id="path7942"
               inkscape:connector-curvature="0" />
            <path
               transform="translate(-315.71,-325.71)"
               d="m 934.29,1052.4 a 21.43,20.000933 0 1 1 -42.86,0 21.43,20.000933 0 1 1 42.86,0 z"
               style="opacity:0.99591998;fill:#000000;stroke:#080505;stroke-width:10"
               id="path7942-7"
               inkscape:connector-curvature="0" />
            <path
               d="m 474.29,920.93 c 0,0 53.94,26.19 82.85,25.72 26.2,-0.43 74.29,-25.72 74.29,-25.72"
               style="fill:none;stroke:#000000;stroke-width:10;stroke-linecap:round;stroke-linejoin:round"
               inkscape:original-d="m 474.28571,920.93361 c 0,0 53.9424,26.18165 82.85715,25.71429 26.20003,-0.42349 74.28571,-25.71429 74.28571,-25.71429"
               id="path7966"
               inkscape:connector-curvature="0" />
          </g>
          <path
             inkscape:original-d="m 11.428572,1112.3621 c 0,0 -84.551675,98.2546 -81.235817,157.121 2.449454,43.4852 73.4537339,104.9075 73.4537339,104.9075"
             sodipodi:nodetypes="csc"
             d="m 11.429,1112.4 c 0,0 -84.552,98.2 -81.236,157.1 2.449,43.5 73.454,104.9 73.454,104.9"
             style="fill:none;stroke:#000000;stroke-width:10;stroke-linecap:round"
             id="path7994"
             inkscape:connector-curvature="0" />
          <path
             d="m 177.14,1003.8 14.29,285.5"
             style="fill:none;stroke:#000000;stroke-width:10.14799976;stroke-linecap:round;stroke-linejoin:round"
             id="path8006"
             inkscape:connector-curvature="0" />
          <path
             d="m -694.29,1289.5 -1.3,220.1 c 0,0 -46.68,64 41.3,54.2 7.64,-0.9 20,-11.4 20,-11.4"
             style="fill:#ffffff;stroke:#000000;stroke-width:10"
             inkscape:original-d="m -694.28572,1289.5051 -1.30051,220.053 c 0,0 -46.68177,63.9951 41.30051,54.2326 7.63151,-0.8468 20.00001,-11.4285 20.00001,-11.4285"
             id="path8010"
             inkscape:connector-curvature="0" />
          <path
             d="m -3.9333,1372.7 -41.548,-8.3 -165.94,25.1 c 0,0 20.85,24.3 47.37,45.8 -0.54,-0.1 -1.09,-0.1 -1.65,-0.1 -9.47,0 -17.16,9.6 -17.16,21.4 0,11.9 7.69,21.5 17.16,21.5 9.47,0 17.12,-9.6 17.12,-21.5 0,-4.2 -1,-8.2 -2.72,-11.5 11.58,8.2 23.72,15.3 35.35,19.2 -2.52,3.7 -4.03,8.5 -4.03,13.8 0,11.8 7.65,21.4 17.12,21.4 9.47,0 17.158,-9.6 17.158,-21.4 0,-4.4 -1.054,-8.5 -2.844,-11.8 13.599,-3.5 27.598,-14.1 40.344,-27 -0.245,1.5 -0.375,2.9 -0.375,4.5 0,11.8 7.689,21.4 17.156,21.4 9.468,0 17.125,-9.6 17.125,-21.4 0,-11.9 -7.657,-21.5 -17.125,-21.5 -0.55,0 -1.088,0.1 -1.625,0.2 19.324,-23.5 33.062,-47.3 33.062,-47.3 l -3.9493,-2.5 z"
             style="fill:#ffaaaa;stroke:#000000;stroke-width:10"
             sodipodi:nodetypes="ccccssssccsssccssssccc"
             id="path8014"
             inkscape:connector-curvature="0" />
        </g>
      </g>
    </g>
    <text
       xml:space="preserve"
       style="font-style:normal;font-variant:normal;font-weight:normal;font-stretch:normal;font-size:7.05555534px;line-height:1.25;font-family:Helvetica;-inkscape-font-specification:Helvetica;letter-spacing:0px;word-spacing:0px;fill:#000000;fill-opacity:1;stroke:none;stroke-width:0.26458332"
       x="-134.49254"
       y="73.748779"
       id="text817-4"><tspan
         sodipodi:role="line"
         id="tspan815-2"
         x="-134.49254"
         y="73.748779"
         style="stroke-width:0.26458332">Vorgeschlagene Fragen</tspan></text>
    <g
       transform="matrix(0.03045522,0,0,0.03045522,-305.35206,-21.404356)"
       id="layer1-5">
      <rect
         y="552.36218"
         x="0"
         width="500"
         style="fill:#55acee;fill-opacity:1;stroke:none"
         ry="250"
         rx="250"
         id="rect2990-1"
         height="500" />
      <g
         transform="translate(-549.00515,80.294372)"
         id="layer1-9" />
      <g
         transform="translate(-575.71429,39.999999)"
         id="layer1-6" />
      <g
         transform="matrix(0.99928945,0,0,0.99928945,474.7002,-40.81928)"
         id="layer1-93" />
      <path
         style="fill:#ffffff;fill-opacity:1;stroke:none"
         id="rect2989"
         d="m 309.85,672.31218 c -35.47079,0.89879 -63.925,29.93138 -63.925,65.625 0,5.13827 0.55122,10.16156 1.675,14.975 -54.56567,-2.74126 -102.94287,-28.87749 -135.325,-68.6 -5.65147,9.69191 -8.9,20.98158 -8.9,33.025 0,22.77467 11.60809,42.85438 29.225,54.625 -10.75722,-0.34428 -20.89606,-3.30758 -29.75,-8.225 -0.005,0.27282 0,0.57069 0,0.85 0,31.80402 22.6379,58.3088 52.675,64.35 -5.50852,1.49406 -11.31075,2.3 -17.3,2.3 -4.23534,0 -8.34203,-0.40198 -12.35,-1.175 8.36022,26.08109 32.57506,45.07385 61.3,45.6 -22.46937,17.61043 -50.73534,28.1 -81.5,28.1 -5.29416,0 -10.53675,-0.28938 -15.675,-0.9 29.06272,18.63683 63.55282,29.5 100.625,29.5 120.76552,0 186.8,-100.04058 186.8,-186.8 0,-2.8452 -0.0517,-5.70577 -0.175,-8.525 12.82294,-9.2372 23.95454,-20.80776 32.75,-33.975 -11.7641,5.22922 -24.41586,8.77146 -37.7,10.35 13.56346,-8.1199 23.97061,-20.98166 28.875,-36.325 -12.68652,7.52877 -26.73993,13.00085 -41.7,15.95 -11.97197,-12.75798 -29.04137,-20.725 -47.925,-20.725 -0.56646,0 -1.13698,-0.0143 -1.7,0 z"
         inkscape:connector-curvature="0" />
    </g>
    <g
       transform="matrix(0.0315243,0,0,0.0315243,-305.8866,9.2474171)"
       id="layer1-1">
      <rect
         y="552.36218"
         x="0"
         width="500"
         style="fill:#45619d;fill-opacity:1;stroke:none"
         ry="250"
         rx="250"
         id="rect3758-1"
         height="500" />
      <path
         transform="translate(0,552.36218)"
         style="fill:#ffffff;fill-opacity:1;stroke:none"
         id="rect2989-1"
         d="m 289.6875,60 c -67.78433,0 -90.15625,31.10057 -90.15625,84.4375 v 42.21875 H 155 v 63.375 h 44.53125 V 440 h 82.125 V 250.03125 h 55.8125 l 7.5,-63.375 h -63.3125 V 149 c 0,-17.02034 3.73523,-25.65625 30.15625,-25.65625 h 33.15625 V 60 Z"
         inkscape:connector-curvature="0" />
    </g>
    <rect
       style="opacity:0.98999999;vector-effect:none;fill:#ffffff;fill-opacity:1;fill-rule:nonzero;stroke:none;stroke-width:0.21353814;stroke-linecap:butt;stroke-linejoin:miter;stroke-miterlimit:4;stroke-dasharray:none;stroke-dashoffset:0;stroke-opacity:0.98451329;paint-order:fill markers stroke"
       id="rect939"
       width="91.09227"
       height="13.513199"
       x="-226.78569"
       y="43.093948" />
    <text
       xml:space="preserve"
       style="font-style:normal;font-variant:normal;font-weight:normal;font-stretch:normal;font-size:7.05555534px;line-height:1.25;font-family:Helvetica;-inkscape-font-specification:Helvetica;letter-spacing:0px;word-spacing:0px;fill:#000000;fill-opacity:1;stroke:none;stroke-width:0.26458332"
       x="-313.92587"
       y="-6.8046484"
       id="text955"><tspan
         sodipodi:role="line"
         id="tspan953"
         x="-313.92587"
         y="-0.44932571"
         style="stroke-width:0.26458332" /></text>
    <text
       xml:space="preserve"
       style="font-style:normal;font-variant:normal;font-weight:normal;font-stretch:normal;font-size:10.58333302px;line-height:1.25;font-family:Helvetica;-inkscape-font-specification:Helvetica;letter-spacing:0px;word-spacing:0px;fill:#000000;fill-opacity:1;stroke:none;stroke-width:0.26458332"
       x="-304.30417"
       y="-1.9937944"
       id="text959"><tspan
         sodipodi:role="line"
         id="tspan957"
         x="-304.30417"
         y="7.5391893"
         style="stroke-width:0.26458332" /></text>
    <text
       xml:space="preserve"
       style="font-style:normal;font-variant:normal;font-weight:normal;font-stretch:normal;font-size:4.23333311px;line-height:1.25;font-family:Helvetica;-inkscape-font-specification:Helvetica;letter-spacing:0px;word-spacing:0px;fill:#000000;fill-opacity:1;stroke:none;stroke-width:0.26458332"
       x="-104.76818"
       y="120.65049"
       id="text963"><tspan
         sodipodi:role="line"
         id="tspan961"
         x="-104.76818"
         y="120.65049"
         style="stroke-width:0.26458332">über den Autor</tspan></text>
    <text
       xml:space="preserve"
       style="font-style:normal;font-variant:normal;font-weight:normal;font-stretch:normal;font-size:4.23333311px;line-height:1.25;font-family:Helvetica;-inkscape-font-specification:Helvetica;letter-spacing:0px;word-spacing:0px;fill:#000000;fill-opacity:1;stroke:none;stroke-width:0.26458332"
       x="-204.34535"
       y="120.95019"
       id="text967"><tspan
         sodipodi:role="line"
         id="tspan965"
         x="-204.34535"
         y="120.95019"
         style="stroke-width:0.26458332">Impressum</tspan></text>
    <text
       xml:space="preserve"
       style="font-style:normal;font-variant:normal;font-weight:normal;font-stretch:normal;font-size:4.23333311px;line-height:1.25;font-family:Helvetica;-inkscape-font-specification:Helvetica;letter-spacing:0px;word-spacing:0px;fill:#000000;fill-opacity:1;stroke:none;stroke-width:0.26458332"
       x="-296.55334"
       y="121.48473"
       id="text971"><tspan
         sodipodi:role="line"
         id="tspan969"
         x="-296.55334"
         y="121.48473"
         style="stroke-width:0.26458332">Warum &quot;Frag einen Veganer&quot;?</tspan></text>
    <text
       xml:space="preserve"
       style="font-style:normal;font-variant:normal;font-weight:normal;font-stretch:normal;font-size:4.23333311px;line-height:1.25;font-family:Helvetica;-inkscape-font-specification:Helvetica;letter-spacing:0px;word-spacing:0px;fill:#000000;fill-opacity:1;stroke:none;stroke-width:0.26458332"
       x="-131.11351"
       y="49.054684"
       id="text975"><tspan
         sodipodi:role="line"
         id="tspan973"
         x="-131.11351"
         y="49.054684"
         style="stroke-width:0.26458332">Überzeugte Veganer Zähler:</tspan></text>
    <text
       xml:space="preserve"
       style="font-style:normal;font-variant:normal;font-weight:normal;font-stretch:normal;font-size:4.23333311px;line-height:1.25;font-family:Helvetica;-inkscape-font-specification:Helvetica;letter-spacing:0px;word-spacing:0px;fill:#000000;fill-opacity:1;stroke:none;stroke-width:0.26458332"
       x="-75.254166"
       y="49.054684"
       id="text979"><tspan
         sodipodi:role="line"
         id="tspan977"
         x="-75.254166"
         y="49.054684"
         style="stroke-width:0.26458332">1564</tspan></text>
    <text
       xml:space="preserve"
       style="font-style:normal;font-variant:normal;font-weight:normal;font-stretch:normal;font-size:4.23333311px;line-height:1.25;font-family:Helvetica;-inkscape-font-specification:Helvetica;letter-spacing:0px;word-spacing:0px;fill:#000000;fill-opacity:1;stroke:none;stroke-width:0.26458332"
       x="-175.45232"
       y="121.33006"
       id="text967-5"><tspan
         sodipodi:role="line"
         x="-175.45232"
         y="121.33006"
         style="stroke-width:0.26458332"
         id="tspan999">Alle Fragen + Antworten ansehen</tspan></text>
    <path
       style="fill:#cccccc;fill-opacity:0.40176601;stroke:#666666;stroke-width:5;stroke-linecap:butt;stroke-linejoin:miter;stroke-miterlimit:4;stroke-dasharray:none;stroke-opacity:0.98675495"
       d="m -312.10774,82.052691 h 72.95401"
       id="path1005"
       inkscape:connector-curvature="0" />
    <path
       inkscape:connector-curvature="0"
       id="path1007"
       d="m -312.10774,92.06906 h 72.95401"
       style="fill:#cccccc;fill-opacity:0.40176601;stroke:#666666;stroke-width:5;stroke-linecap:butt;stroke-linejoin:miter;stroke-miterlimit:4;stroke-dasharray:none;stroke-opacity:0.98675495" />
    <path
       style="fill:#cccccc;fill-opacity:0.40176601;stroke:#666666;stroke-width:5;stroke-linecap:butt;stroke-linejoin:miter;stroke-miterlimit:4;stroke-dasharray:none;stroke-opacity:0.98675495"
       d="m -312.10774,102.84138 h 72.95401"
       id="path1009"
       inkscape:connector-curvature="0" />
    <path
       inkscape:connector-curvature="0"
       id="path1011"
       d="m -224.41726,82.052691 h 72.95401"
       style="fill:#cccccc;fill-opacity:0.40176601;stroke:#666666;stroke-width:5;stroke-linecap:butt;stroke-linejoin:miter;stroke-miterlimit:4;stroke-dasharray:none;stroke-opacity:0.98675495" />
    <path
       style="fill:#cccccc;fill-opacity:0.40176601;stroke:#666666;stroke-width:5;stroke-linecap:butt;stroke-linejoin:miter;stroke-miterlimit:4;stroke-dasharray:none;stroke-opacity:0.98675495"
       d="m -224.41726,92.06906 h 72.95401"
       id="path1013"
       inkscape:connector-curvature="0" />
    <path
       inkscape:connector-curvature="0"
       id="path1015"
       d="m -224.41726,102.84138 h 72.95401"
       style="fill:#cccccc;fill-opacity:0.40176601;stroke:#666666;stroke-width:5;stroke-linecap:butt;stroke-linejoin:miter;stroke-miterlimit:4;stroke-dasharray:none;stroke-opacity:0.98675495" />
    <path
       style="fill:#cccccc;fill-opacity:0.40176601;stroke:#666666;stroke-width:5;stroke-linecap:butt;stroke-linejoin:miter;stroke-miterlimit:4;stroke-dasharray:none;stroke-opacity:0.98675495"
       d="m -135.97083,82.052691 h 72.954009"
       id="path1017"
       inkscape:connector-curvature="0" />
    <path
       inkscape:connector-curvature="0"
       id="path1019"
       d="m -135.97083,92.06906 h 72.954009"
       style="fill:#cccccc;fill-opacity:0.40176601;stroke:#666666;stroke-width:5;stroke-linecap:butt;stroke-linejoin:miter;stroke-miterlimit:4;stroke-dasharray:none;stroke-opacity:0.98675495" />
    <path
       style="fill:#cccccc;fill-opacity:0.40176601;stroke:#666666;stroke-width:5;stroke-linecap:butt;stroke-linejoin:miter;stroke-miterlimit:4;stroke-dasharray:none;stroke-opacity:0.98675495"
       d="m -135.97083,102.84138 h 72.954009"
       id="path1021"
       inkscape:connector-curvature="0" />
  </g>
</svg>
